<?xml version="1.0" standalone="no"?>
<!DOCTYPE svg PUBLIC "-//W3C//DTD SVG 20010904//EN"
 "http://www.w3.org/TR/2001/REC-SVG-20010904/DTD/svg10.dtd">
<svg version="1.0" xmlns="http://www.w3.org/2000/svg"
 width="175.000000pt" height="175.000000pt" viewBox="0 0 175.000000 175.000000"
 preserveAspectRatio="xMidYMid meet">
<metadata>
Created by potrace 1.11, written by Peter Selinger 2001-2013
</metadata>
<g transform="translate(0.000000,175.000000) scale(0.100000,-0.100000)"
fill="#000000" stroke="none">
<path d="M62 1148 c-17 -17 -17 -439 0 -456 7 -7 27 -12 45 -12 31 0 33 -2 33
-33 0 -18 5 -38 12 -45 17 -17 889 -17 906 0 7 7 12 27 12 45 0 30 3 33 30 33
27 0 30 -3 30 -33 0 -18 5 -38 12 -45 16 -16 170 -16 186 0 7 7 12 43 12 90
l0 78 75 0 75 0 0 -78 c0 -47 5 -83 12 -90 16 -16 170 -16 186 0 17 17 17 439
0 456 -7 7 -27 12 -45 12 -31 0 -33 2 -33 33 0 18 -5 38 -12 45 -17 17 -889
17 -906 0 -7 -7 -12 -27 -12 -45 0 -30 -3 -33 -30 -33 -27 0 -30 3 -30 33 0
18 -5 38 -12 45 -16 16 -170 16 -186 0 -8 -8 -12 -63 -12 -180 l0 -168 -75 0
-75 0 0 168 c0 117 -4 172 -12 180 -7 7 -43 12 -93 12 -50 0 -86 -5 -93 -12z
m138 -228 l0 -180 135 0 135 0 0 180 0 180 45 0 45 0 0 -225 0 -225 -180 0
-180 0 0 45 0 45 -45 0 -45 0 0 180 0 180 45 0 45 0 0 -180z m900 135 l0 -45
-180 0 -180 0 0 -45 0 -45 135 0 135 0 0 -45 0 -45 45 0 45 0 0 -45 0 -45 -45
0 -45 0 0 -45 0 -45 -180 0 -180 0 0 45 0 45 180 0 180 0 0 45 0 45 -135 0
-135 0 0 45 0 45 -45 0 -45 0 0 45 0 45 45 0 45 0 0 45 0 45 180 0 180 0 0
-45z m270 0 l0 -45 45 0 45 0 0 45 0 45 45 0 45 0 0 -45 0 -45 45 0 45 0 0
-180 0 -180 -45 0 -45 0 0 180 0 180 -45 0 -45 0 0 -90 0 -90 -45 0 -45 0 0
90 0 90 -45 0 -45 0 0 -180 0 -180 -45 0 -45 0 0 225 0 225 90 0 90 0 0 -45z
m-240 -135 c0 -27 -3 -30 -30 -30 -27 0 -30 3 -30 30 0 27 3 30 30 30 27 0 30
-3 30 -30z m-450 -90 c0 -27 -3 -30 -30 -30 -27 0 -30 3 -30 30 0 27 3 30 30
30 27 0 30 -3 30 -30z"/>
</g>
</svg>
